<?xml version="1.0" ?><svg xmlns="http://www.w3.org/2000/svg" width="24" height="24" viewBox="0 0 24 24" fill="none"><path d="M3 4.83077V4.86955L3.003 4.90821C3.18611 7.26558 3.8658 11.2966 6.30322 14.8607C8.7756 18.4759 12.9969 21.5186 20.0424 21.9213C20.2741 21.9353 20.5062 21.9036 20.7257 21.828C20.9458 21.7521 21.1488 21.6334 21.323 21.4789C21.4972 21.3244 21.6392 21.137 21.7408 20.9275C21.8424 20.718 21.9016 20.4905 21.9152 20.2581L21.9168 20.2291V20.2V16.0923V15.4157L21.2888 15.164L18.3898 14.0025L17.7796 13.758L17.3132 14.2213L15.4525 16.0697C12.5543 15.6702 10.9268 14.0447 9.99401 12.4771C9.51586 11.6735 9.22333 10.8866 9.05107 10.2958C8.96529 10.0016 8.91048 9.76003 8.87774 9.5947C8.86744 9.5427 8.85941 9.49868 8.85334 9.46338L10.6934 7.60325L11.1534 7.13822L10.9116 6.53043L9.75819 3.63043L9.50745 3H8.82899H4.76895C4.29967 3 3.8497 3.18649 3.51798 3.51833C3.18628 3.85015 3 4.30012 3 4.76923V4.83077Z" fill="black" stroke="black" stroke-width="2"/></svg>